<mxfile host="app.diagrams.net" agent="Mozilla/5.0 (Windows NT 10.0; Win64; x64) AppleWebKit/537.36 (KHTML, like Gecko) Chrome/140.0.0.0 Safari/537.36" version="28.2.3">
  <diagram name="Page-1" id="CqPpbr3790namEYuHR61">
    <mxGraphModel dx="1623" dy="784" grid="1" gridSize="10" guides="1" tooltips="1" connect="1" arrows="1" fold="1" page="1" pageScale="1" pageWidth="850" pageHeight="1100" math="0" shadow="0">
      <root>
        <mxCell id="0" />
        <mxCell id="1" parent="0" />
        <mxCell id="5nSw7tQEfJCluWlVgi8X-2" value="" style="rounded=0;whiteSpace=wrap;html=1;" vertex="1" parent="1">
          <mxGeometry x="340" y="300" width="170" height="550" as="geometry" />
        </mxCell>
        <mxCell id="5nSw7tQEfJCluWlVgi8X-6" value="Editor" style="shape=umlActor;verticalLabelPosition=bottom;verticalAlign=top;html=1;outlineConnect=0;" vertex="1" parent="1">
          <mxGeometry x="200" y="692.5" width="50" height="100" as="geometry" />
        </mxCell>
        <mxCell id="5nSw7tQEfJCluWlVgi8X-9" value="Reader" style="shape=umlActor;verticalLabelPosition=bottom;verticalAlign=top;html=1;outlineConnect=0;" vertex="1" parent="1">
          <mxGeometry x="200" y="370" width="50" height="100" as="geometry" />
        </mxCell>
        <mxCell id="5nSw7tQEfJCluWlVgi8X-10" value="Journalist" style="shape=umlActor;verticalLabelPosition=bottom;verticalAlign=top;html=1;outlineConnect=0;" vertex="1" parent="1">
          <mxGeometry x="200" y="523.75" width="50" height="102.5" as="geometry" />
        </mxCell>
        <mxCell id="5nSw7tQEfJCluWlVgi8X-12" value="Publisher" style="shape=umlActor;verticalLabelPosition=bottom;verticalAlign=top;html=1;outlineConnect=0;" vertex="1" parent="1">
          <mxGeometry x="590" y="420" width="50" height="100" as="geometry" />
        </mxCell>
        <mxCell id="5nSw7tQEfJCluWlVgi8X-13" value="Admin" style="shape=umlActor;verticalLabelPosition=bottom;verticalAlign=top;html=1;outlineConnect=0;" vertex="1" parent="1">
          <mxGeometry x="590" y="620" width="50" height="100" as="geometry" />
        </mxCell>
        <mxCell id="5nSw7tQEfJCluWlVgi8X-14" value="&lt;font style=&quot;font-size: 10px;&quot;&gt;View Articles &amp;amp; Newsletters&lt;/font&gt;" style="ellipse;whiteSpace=wrap;html=1;" vertex="1" parent="1">
          <mxGeometry x="379" y="600" width="92" height="45" as="geometry" />
        </mxCell>
        <mxCell id="5nSw7tQEfJCluWlVgi8X-15" value="&lt;font style=&quot;font-size: 10px;&quot;&gt;Subscribe&lt;/font&gt;" style="ellipse;whiteSpace=wrap;html=1;" vertex="1" parent="1">
          <mxGeometry x="379" y="320" width="92" height="45" as="geometry" />
        </mxCell>
        <mxCell id="5nSw7tQEfJCluWlVgi8X-16" value="&lt;font style=&quot;font-size: 10px;&quot;&gt;Edit &amp;amp; Delete content&lt;/font&gt;" style="ellipse;whiteSpace=wrap;html=1;" vertex="1" parent="1">
          <mxGeometry x="379" y="720" width="92" height="45" as="geometry" />
        </mxCell>
        <mxCell id="5nSw7tQEfJCluWlVgi8X-17" value="&lt;font style=&quot;font-size: 10px;&quot;&gt;Apply for role&lt;/font&gt;" style="ellipse;whiteSpace=wrap;html=1;" vertex="1" parent="1">
          <mxGeometry x="379.5" y="460" width="92" height="45" as="geometry" />
        </mxCell>
        <mxCell id="5nSw7tQEfJCluWlVgi8X-21" value="" style="endArrow=none;html=1;rounded=0;entryX=0.011;entryY=0.667;entryDx=0;entryDy=0;entryPerimeter=0;" edge="1" parent="1" source="5nSw7tQEfJCluWlVgi8X-9" target="5nSw7tQEfJCluWlVgi8X-15">
          <mxGeometry width="50" height="50" relative="1" as="geometry">
            <mxPoint x="310" y="290" as="sourcePoint" />
            <mxPoint x="360" y="240" as="targetPoint" />
          </mxGeometry>
        </mxCell>
        <mxCell id="5nSw7tQEfJCluWlVgi8X-23" value="" style="endArrow=none;html=1;rounded=0;entryX=0;entryY=0.5;entryDx=0;entryDy=0;" edge="1" parent="1" source="5nSw7tQEfJCluWlVgi8X-10" target="5nSw7tQEfJCluWlVgi8X-34">
          <mxGeometry width="50" height="50" relative="1" as="geometry">
            <mxPoint x="290" y="625.9349999999997" as="sourcePoint" />
            <mxPoint x="350" y="579.06" as="targetPoint" />
          </mxGeometry>
        </mxCell>
        <mxCell id="5nSw7tQEfJCluWlVgi8X-24" value="" style="endArrow=none;html=1;rounded=0;entryX=0;entryY=0.5;entryDx=0;entryDy=0;" edge="1" parent="1" source="5nSw7tQEfJCluWlVgi8X-6" target="5nSw7tQEfJCluWlVgi8X-16">
          <mxGeometry width="50" height="50" relative="1" as="geometry">
            <mxPoint x="280" y="820" as="sourcePoint" />
            <mxPoint x="330" y="770" as="targetPoint" />
          </mxGeometry>
        </mxCell>
        <mxCell id="5nSw7tQEfJCluWlVgi8X-26" value="&lt;font style=&quot;font-size: 9px;&quot;&gt;Review applications &amp;amp; manage user roles&lt;/font&gt;" style="ellipse;whiteSpace=wrap;html=1;" vertex="1" parent="1">
          <mxGeometry x="373" y="530" width="105" height="59" as="geometry" />
        </mxCell>
        <mxCell id="5nSw7tQEfJCluWlVgi8X-27" value="" style="endArrow=none;html=1;rounded=0;entryX=0.5;entryY=1;entryDx=0;entryDy=0;dashed=1;" edge="1" parent="1" source="5nSw7tQEfJCluWlVgi8X-26" target="5nSw7tQEfJCluWlVgi8X-17">
          <mxGeometry width="50" height="50" relative="1" as="geometry">
            <mxPoint x="729" y="310" as="sourcePoint" />
            <mxPoint x="620" y="335" as="targetPoint" />
          </mxGeometry>
        </mxCell>
        <mxCell id="5nSw7tQEfJCluWlVgi8X-28" value="" style="endArrow=none;html=1;rounded=0;entryX=0;entryY=0.5;entryDx=0;entryDy=0;" edge="1" parent="1" source="5nSw7tQEfJCluWlVgi8X-9" target="5nSw7tQEfJCluWlVgi8X-17">
          <mxGeometry width="50" height="50" relative="1" as="geometry">
            <mxPoint x="110" y="415" as="sourcePoint" />
            <mxPoint x="220" y="390" as="targetPoint" />
          </mxGeometry>
        </mxCell>
        <mxCell id="5nSw7tQEfJCluWlVgi8X-29" value="" style="endArrow=none;html=1;rounded=0;entryX=0;entryY=0.5;entryDx=0;entryDy=0;" edge="1" parent="1" source="5nSw7tQEfJCluWlVgi8X-10" target="5nSw7tQEfJCluWlVgi8X-14">
          <mxGeometry width="50" height="50" relative="1" as="geometry">
            <mxPoint x="100" y="470" as="sourcePoint" />
            <mxPoint x="209" y="490" as="targetPoint" />
          </mxGeometry>
        </mxCell>
        <mxCell id="5nSw7tQEfJCluWlVgi8X-30" value="" style="endArrow=none;html=1;rounded=0;entryX=0.046;entryY=0.334;entryDx=0;entryDy=0;entryPerimeter=0;" edge="1" parent="1" source="5nSw7tQEfJCluWlVgi8X-9" target="5nSw7tQEfJCluWlVgi8X-14">
          <mxGeometry width="50" height="50" relative="1" as="geometry">
            <mxPoint x="260" y="490" as="sourcePoint" />
            <mxPoint x="380" y="530" as="targetPoint" />
          </mxGeometry>
        </mxCell>
        <mxCell id="5nSw7tQEfJCluWlVgi8X-31" value="" style="endArrow=none;html=1;rounded=0;entryX=0.953;entryY=0.227;entryDx=0;entryDy=0;entryPerimeter=0;" edge="1" parent="1" source="5nSw7tQEfJCluWlVgi8X-12" target="5nSw7tQEfJCluWlVgi8X-14">
          <mxGeometry width="50" height="50" relative="1" as="geometry">
            <mxPoint x="570" y="540" as="sourcePoint" />
            <mxPoint x="460" y="517.5" as="targetPoint" />
          </mxGeometry>
        </mxCell>
        <mxCell id="5nSw7tQEfJCluWlVgi8X-32" value="" style="endArrow=none;html=1;rounded=0;entryX=1;entryY=0.5;entryDx=0;entryDy=0;" edge="1" parent="1" source="5nSw7tQEfJCluWlVgi8X-12" target="5nSw7tQEfJCluWlVgi8X-33">
          <mxGeometry width="50" height="50" relative="1" as="geometry">
            <mxPoint x="570" y="630" as="sourcePoint" />
            <mxPoint x="580" y="792" as="targetPoint" />
          </mxGeometry>
        </mxCell>
        <mxCell id="5nSw7tQEfJCluWlVgi8X-33" value="&lt;font style=&quot;font-size: 10px;&quot;&gt;View Relevant Subscriptions&lt;/font&gt;" style="ellipse;whiteSpace=wrap;html=1;" vertex="1" parent="1">
          <mxGeometry x="379" y="390" width="92" height="45" as="geometry" />
        </mxCell>
        <mxCell id="5nSw7tQEfJCluWlVgi8X-34" value="&lt;font style=&quot;font-size: 10px;&quot;&gt;Create Articles &amp;amp; Newsletters&lt;/font&gt;" style="ellipse;whiteSpace=wrap;html=1;" vertex="1" parent="1">
          <mxGeometry x="379" y="660" width="92" height="45" as="geometry" />
        </mxCell>
        <mxCell id="5nSw7tQEfJCluWlVgi8X-36" value="" style="endArrow=none;html=1;rounded=0;entryX=0;entryY=0;entryDx=0;entryDy=0;" edge="1" parent="1" source="5nSw7tQEfJCluWlVgi8X-10" target="5nSw7tQEfJCluWlVgi8X-16">
          <mxGeometry width="50" height="50" relative="1" as="geometry">
            <mxPoint x="270" y="593.5" as="sourcePoint" />
            <mxPoint x="379" y="646.5" as="targetPoint" />
          </mxGeometry>
        </mxCell>
        <mxCell id="5nSw7tQEfJCluWlVgi8X-37" value="&lt;font style=&quot;font-size: 10px;&quot;&gt;Approve &amp;amp; Reject articles&lt;/font&gt;" style="ellipse;whiteSpace=wrap;html=1;" vertex="1" parent="1">
          <mxGeometry x="379" y="780" width="92" height="45" as="geometry" />
        </mxCell>
        <mxCell id="5nSw7tQEfJCluWlVgi8X-38" value="" style="endArrow=none;html=1;rounded=0;entryX=0;entryY=0.5;entryDx=0;entryDy=0;" edge="1" parent="1" source="5nSw7tQEfJCluWlVgi8X-6" target="5nSw7tQEfJCluWlVgi8X-37">
          <mxGeometry width="50" height="50" relative="1" as="geometry">
            <mxPoint x="120" y="740" as="sourcePoint" />
            <mxPoint x="219" y="740" as="targetPoint" />
          </mxGeometry>
        </mxCell>
        <mxCell id="5nSw7tQEfJCluWlVgi8X-40" value="" style="endArrow=none;html=1;rounded=0;entryX=0.061;entryY=0.733;entryDx=0;entryDy=0;entryPerimeter=0;" edge="1" parent="1" source="5nSw7tQEfJCluWlVgi8X-6" target="5nSw7tQEfJCluWlVgi8X-14">
          <mxGeometry width="50" height="50" relative="1" as="geometry">
            <mxPoint x="210.5" y="620" as="sourcePoint" />
            <mxPoint x="309.5" y="620" as="targetPoint" />
          </mxGeometry>
        </mxCell>
        <mxCell id="5nSw7tQEfJCluWlVgi8X-41" value="&lt;font style=&quot;font-size: 14px;&quot;&gt;Use case diagram&lt;/font&gt;" style="text;html=1;align=center;verticalAlign=middle;whiteSpace=wrap;rounded=0;" vertex="1" parent="1">
          <mxGeometry x="305.5" y="240" width="240" height="30" as="geometry" />
        </mxCell>
        <mxCell id="5nSw7tQEfJCluWlVgi8X-43" value="" style="endArrow=none;html=1;rounded=0;entryX=0.945;entryY=0.729;entryDx=0;entryDy=0;entryPerimeter=0;" edge="1" parent="1" source="5nSw7tQEfJCluWlVgi8X-13" target="5nSw7tQEfJCluWlVgi8X-26">
          <mxGeometry width="50" height="50" relative="1" as="geometry">
            <mxPoint x="679" y="590" as="sourcePoint" />
            <mxPoint x="560" y="550" as="targetPoint" />
          </mxGeometry>
        </mxCell>
        <mxCell id="5nSw7tQEfJCluWlVgi8X-45" value="" style="endArrow=none;html=1;rounded=0;entryX=0.953;entryY=0.72;entryDx=0;entryDy=0;entryPerimeter=0;" edge="1" parent="1" source="5nSw7tQEfJCluWlVgi8X-13" target="5nSw7tQEfJCluWlVgi8X-14">
          <mxGeometry width="50" height="50" relative="1" as="geometry">
            <mxPoint x="600" y="650" as="sourcePoint" />
            <mxPoint x="471" y="620" as="targetPoint" />
          </mxGeometry>
        </mxCell>
        <mxCell id="5nSw7tQEfJCluWlVgi8X-46" value="" style="endArrow=none;html=1;rounded=0;entryX=0;entryY=0.5;entryDx=0;entryDy=0;" edge="1" parent="1" source="5nSw7tQEfJCluWlVgi8X-9" target="5nSw7tQEfJCluWlVgi8X-33">
          <mxGeometry width="50" height="50" relative="1" as="geometry">
            <mxPoint x="270" y="390" as="sourcePoint" />
            <mxPoint x="220" y="320" as="targetPoint" />
          </mxGeometry>
        </mxCell>
      </root>
    </mxGraphModel>
  </diagram>
</mxfile>
